{
  "asset": {
    "generator": "Khronos glTF Blender I/O v4.0.44",
    "version": "2.0"
  },
  "scene": 0,
  "scenes": [
    {
      "name": "Scene",
      "nodes": [
        0,
        1,
        2
      ]
    }
  ],
  "nodes": [
    {
      "mesh": 0,
      "name": "Blacksmith",
      "rotation": [
        0,
        0,
        -0.7071068286895752,
        0.7071068286895752
      ],
      "scale": [
        1,
        1,
        1.351509690284729
      ],
      "translation": [
        0,
        1.0360615253448486,
        0
      ]
    },
    {
      "mesh": 1,
      "name": "Anvil",
      "translation": [
        0,
        1.0216046571731567,
        16.44135284423828
      ]
    },
    {
      "mesh": 2,
      "name": "Box1",
      "translation": [
        0,
        1.0406572818756104,
        11.328609466552734
      ]
    }
  ],
  "materials": [
    {
      "doubleSided": true,
      "name": "TT_color_00",
      "pbrMetallicRoughness": {
        "baseColorFactor": [
          1,
          0,
          0,
          1
        ],
        "metallicFactor": 0,
        "roughnessFactor": 0.5
      }
    },
    {
      "doubleSided": true,
      "name": "TT_color_01",
      "pbrMetallicRoughness": {
        "baseColorFactor": [
          0,
          0,
          1,
          1
        ],
        "metallicFactor": 0,
        "roughnessFactor": 0.5
      }
    },
    {
      "doubleSided": true,
      "name": "TT_color_02",
      "pbrMetallicRoughness": {
        "baseColorFactor": [
          0,
          1,
          0,
          1
        ],
        "metallicFactor": 0,
        "roughnessFactor": 0.5
      }
    },
    {
      "doubleSided": true,
      "name": "TT_color_03",
      "pbrMetallicRoughness": {
        "baseColorFactor": [
          1,
          1,
          0,
          1
        ],
        "metallicFactor": 0,
        "roughnessFactor": 0.5
      }
    },
    {
      "doubleSided": true,
      "name": "TT_color_04",
      "pbrMetallicRoughness": {
        "baseColorFactor": [
          0,
          1,
          1,
          1
        ],
        "metallicFactor": 0,
        "roughnessFactor": 0.5
      }
    }
  ],
  "meshes": [
    {
      "name": "Plane",
      "primitives": [
        {
          "attributes": {
            "POSITION": 0,
            "NORMAL": 1,
            "TEXCOORD_0": 2
          },
          "indices": 3,
          "material": 0
        },
        {
          "attributes": {
            "POSITION": 4,
            "NORMAL": 5,
            "TEXCOORD_0": 6
          },
          "indices": 7,
          "material": 1
        },
        {
          "attributes": {
            "POSITION": 8,
            "NORMAL": 9,
            "TEXCOORD_0": 10
          },
          "indices": 11,
          "material": 2
        },
        {
          "attributes": {
            "POSITION": 12,
            "NORMAL": 13,
            "TEXCOORD_0": 14
          },
          "indices": 15,
          "material": 3
        },
        {
          "attributes": {
            "POSITION": 16,
            "NORMAL": 17,
            "TEXCOORD_0": 18
          },
          "indices": 19,
          "material": 4
        }
      ]
    },
    {
      "name": "Cube.001",
      "primitives": [
        {
          "attributes": {
            "POSITION": 20,
            "NORMAL": 21,
            "TEXCOORD_0": 22
          },
          "indices": 23
        }
      ]
    },
    {
      "name": "Cylinder",
      "primitives": [
        {
          "attributes": {
            "POSITION": 24,
            "NORMAL": 25,
            "TEXCOORD_0": 26
          },
          "indices": 27
        }
      ]
    }
  ],
  "accessors": [
    {
      "bufferView": 0,
      "componentType": 5126,
      "count": 2183,
      "max": [
        1.042277216911316,
        1.5224677324295044,
        10.518743515014648
      ],
      "min": [
        -18.93476676940918,
        -12.875020027160645,
        -11.770249366760254
      ],
      "type": "VEC3"
    },
    {
      "bufferView": 1,
      "componentType": 5126,
      "count": 2183,
      "type": "VEC3"
    },
    {
      "bufferView": 2,
      "componentType": 5126,
      "count": 2183,
      "type": "VEC2"
    },
    {
      "bufferView": 3,
      "componentType": 5123,
      "count": 4512,
      "type": "SCALAR"
    },
    {
      "bufferView": 4,
      "componentType": 5126,
      "count": 136,
      "max": [
        -6.841618061065674,
        -2.629185438156128,
        10.368414878845215
      ],
      "min": [
        -9.351585388183594,
        -9.471428871154785,
        4.686881065368652
      ],
      "type": "VEC3"
    },
    {
      "bufferView": 5,
      "componentType": 5126,
      "count": 136,
      "type": "VEC3"
    },
    {
      "bufferView": 6,
      "componentType": 5126,
      "count": 136,
      "type": "VEC2"
    },
    {
      "bufferView": 7,
      "componentType": 5123,
      "count": 306,
      "type": "SCALAR"
    },
    {
      "bufferView": 8,
      "componentType": 5126,
      "count": 291,
      "max": [
        1,
        3.6676087233900034e-7,
        10.368663787841797
      ],
      "min": [
        -14.136368751525879,
        -9.471428871154785,
        -7.743371963500977
      ],
      "type": "VEC3"
    },
    {
      "bufferView": 9,
      "componentType": 5126,
      "count": 291,
      "type": "VEC3"
    },
    {
      "bufferView": 10,
      "componentType": 5126,
      "count": 291,
      "type": "VEC2"
    },
    {
      "bufferView": 11,
      "componentType": 5123,
      "count": 687,
      "type": "SCALAR"
    },
    {
      "bufferView": 12,
      "componentType": 5126,
      "count": 33,
      "max": [
        -2.9368650913238525,
        -0.6336724162101746,
        4.392956733703613
      ],
      "min": [
        -4.8464813232421875,
        -7.516335487365723,
        0.175085186958313
      ],
      "type": "VEC3"
    },
    {
      "bufferView": 13,
      "componentType": 5126,
      "count": 33,
      "type": "VEC3"
    },
    {
      "bufferView": 14,
      "componentType": 5126,
      "count": 33,
      "type": "VEC2"
    },
    {
      "bufferView": 15,
      "componentType": 5123,
      "count": 69,
      "type": "SCALAR"
    },
    {
      "bufferView": 16,
      "componentType": 5126,
      "count": 1022,
      "max": [
        -8.361245155334473,
        0.5958074331283569,
        5.123481273651123
      ],
      "min": [
        -19.575851440429688,
        -12.513843536376953,
        -11.144610404968262
      ],
      "type": "VEC3"
    },
    {
      "bufferView": 17,
      "componentType": 5126,
      "count": 1022,
      "type": "VEC3"
    },
    {
      "bufferView": 18,
      "componentType": 5126,
      "count": 1022,
      "type": "VEC2"
    },
    {
      "bufferView": 19,
      "componentType": 5123,
      "count": 1653,
      "type": "SCALAR"
    },
    {
      "bufferView": 20,
      "componentType": 5126,
      "count": 222,
      "max": [
        0.6970943212509155,
        0.7464101910591125,
        2.717637062072754
      ],
      "min": [
        -0.7289127111434937,
        -1,
        -2.0520870685577393
      ],
      "type": "VEC3"
    },
    {
      "bufferView": 21,
      "componentType": 5126,
      "count": 222,
      "type": "VEC3"
    },
    {
      "bufferView": 22,
      "componentType": 5126,
      "count": 222,
      "type": "VEC2"
    },
    {
      "bufferView": 23,
      "componentType": 5123,
      "count": 378,
      "type": "SCALAR"
    },
    {
      "bufferView": 24,
      "componentType": 5126,
      "count": 832,
      "max": [
        1,
        1,
        1
      ],
      "min": [
        -1,
        -1.0389268398284912,
        -1
      ],
      "type": "VEC3"
    },
    {
      "bufferView": 25,
      "componentType": 5126,
      "count": 832,
      "type": "VEC3"
    },
    {
      "bufferView": 26,
      "componentType": 5126,
      "count": 832,
      "type": "VEC2"
    },
    {
      "bufferView": 27,
      "componentType": 5123,
      "count": 1332,
      "type": "SCALAR"
    }
  ],
  "bufferViews": [
    {
      "buffer": 0,
      "byteLength": 26196,
      "byteOffset": 0,
      "target": 34962
    },
    {
      "buffer": 0,
      "byteLength": 26196,
      "byteOffset": 26196,
      "target": 34962
    },
    {
      "buffer": 0,
      "byteLength": 17464,
      "byteOffset": 52392,
      "target": 34962
    },
    {
      "buffer": 0,
      "byteLength": 9024,
      "byteOffset": 69856,
      "target": 34963
    },
    {
      "buffer": 0,
      "byteLength": 1632,
      "byteOffset": 78880,
      "target": 34962
    },
    {
      "buffer": 0,
      "byteLength": 1632,
      "byteOffset": 80512,
      "target": 34962
    },
    {
      "buffer": 0,
      "byteLength": 1088,
      "byteOffset": 82144,
      "target": 34962
    },
    {
      "buffer": 0,
      "byteLength": 612,
      "byteOffset": 83232,
      "target": 34963
    },
    {
      "buffer": 0,
      "byteLength": 3492,
      "byteOffset": 83844,
      "target": 34962
    },
    {
      "buffer": 0,
      "byteLength": 3492,
      "byteOffset": 87336,
      "target": 34962
    },
    {
      "buffer": 0,
      "byteLength": 2328,
      "byteOffset": 90828,
      "target": 34962
    },
    {
      "buffer": 0,
      "byteLength": 1376,
      "byteOffset": 93156,
      "target": 34963
    },
    {
      "buffer": 0,
      "byteLength": 396,
      "byteOffset": 94532,
      "target": 34962
    },
    {
      "buffer": 0,
      "byteLength": 396,
      "byteOffset": 94928,
      "target": 34962
    },
    {
      "buffer": 0,
      "byteLength": 264,
      "byteOffset": 95324,
      "target": 34962
    },
    {
      "buffer": 0,
      "byteLength": 140,
      "byteOffset": 95588,
      "target": 34963
    },
    {
      "buffer": 0,
      "byteLength": 12264,
      "byteOffset": 95728,
      "target": 34962
    },
    {
      "buffer": 0,
      "byteLength": 12264,
      "byteOffset": 107992,
      "target": 34962
    },
    {
      "buffer": 0,
      "byteLength": 8176,
      "byteOffset": 120256,
      "target": 34962
    },
    {
      "buffer": 0,
      "byteLength": 3308,
      "byteOffset": 128432,
      "target": 34963
    },
    {
      "buffer": 0,
      "byteLength": 2664,
      "byteOffset": 131740,
      "target": 34962
    },
    {
      "buffer": 0,
      "byteLength": 2664,
      "byteOffset": 134404,
      "target": 34962
    },
    {
      "buffer": 0,
      "byteLength": 1776,
      "byteOffset": 137068,
      "target": 34962
    },
    {
      "buffer": 0,
      "byteLength": 756,
      "byteOffset": 138844,
      "target": 34963
    },
    {
      "buffer": 0,
      "byteLength": 9984,
      "byteOffset": 139600,
      "target": 34962
    },
    {
      "buffer": 0,
      "byteLength": 9984,
      "byteOffset": 149584,
      "target": 34962
    },
    {
      "buffer": 0,
      "byteLength": 6656,
      "byteOffset": 159568,
      "target": 34962
    },
    {
      "buffer": 0,
      "byteLength": 2664,
      "byteOffset": 166224,
      "target": 34963
    }
  ],
  "buffers": [
    {
      "uri": "Schmiede2_data.bin",
      "byteLength": 168888
    }
  ]
}